<?xml version="1.0" encoding="utf-8"?>
<!-- Generator: Adobe Illustrator 15.0.0, SVG Export Plug-In . SVG Version: 6.00 Build 0)  -->
<!DOCTYPE svg PUBLIC "-//W3C//DTD SVG 1.1//EN" "http://www.w3.org/Graphics/SVG/1.1/DTD/svg11.dtd">
<svg version="1.1" id="Layer_1" xmlns="http://www.w3.org/2000/svg" xmlns:xlink="http://www.w3.org/1999/xlink" x="0px" y="0px"
	 width="170.08px" height="56.69px" viewBox="0 0 170.08 56.69" enable-background="new 0 0 170.08 56.69" xml:space="preserve">
<g id="Logo">
	<path fill="#FFFFFF" d="M24.495,44.195v-7.98H19.59V22.005h16.871V54H2V2.257h32.467V14.96H14.125v29.235H24.495z"/>
	<path fill="#FFFFFF" d="M54.09,2.257v12.739H42.005V2.257H54.09z M54.09,18.145V54H42.005V18.145H54.09z"/>
	<path fill="#FFFFFF" d="M70.643,31.742V54H58.558V9.414l7.977-7.157h19.584v9.84H70.643v9.984h14.279v9.661H70.643z"/>
	<path fill="#FFFFFF" d="M103.229,31.742V54H91.144V9.414l7.978-7.157h19.583v9.84h-15.476v9.984h14.279v9.661H103.229z"/>
	<path fill="#FFFFFF" d="M135.815,2.257v12.739h-12.086V2.257H135.815z M135.815,18.145V54h-12.086V18.145H135.815z"/>
	<path fill="#FFFFFF" d="M140.282,2.257h28v9.84h-16.034v9.984h15.236v9.661h-15.077v12.453h16.273V54h-28.398V2.257z"/>
</g>
</svg>
